<?xml version="1.0" standalone="no"?>
<!DOCTYPE svg PUBLIC "-//W3C//DTD SVG 20010904//EN"
 "http://www.w3.org/TR/2001/REC-SVG-20010904/DTD/svg10.dtd">
<svg version="1.0" xmlns="http://www.w3.org/2000/svg"
 width="256.000000pt" height="256.000000pt" viewBox="0 0 256.000000 256.000000"
 preserveAspectRatio="xMidYMid meet">

<g transform="translate(0.000000,256.000000) scale(0.100000,-0.100000)"
fill="#000000" stroke="none">
<path d="M1520 1859 c-30 -5 -68 -11 -85 -14 l-30 -5 0 -232 c1 -208 0 -212
-2 -40 l-3 192 -40 0 c-38 0 -39 1 -42 38 -2 20 -3 -71 -2 -203 2 -139 -1
-221 -5 -195 l-8 45 -1 -58 -2 -57 28 6 c15 3 34 8 42 11 8 2 35 7 60 10 61 7
169 31 148 32 -10 1 -18 6 -18 12 0 7 15 10 40 7 l40 -4 0 223 0 223 -26 10
c-14 6 -28 9 -32 9 -4 -1 -32 -5 -62 -10z m-83 -351 c-1 -62 -3 -14 -3 107 0
121 2 172 3 113 2 -59 2 -158 0 -220z"/>
<path d="M1303 1605 c0 -27 2 -38 4 -22 2 15 2 37 0 50 -2 12 -4 0 -4 -28z"/>
<path d="M1620 1373 c-51 -7 -286 -45 -302 -49 -13 -4 -17 -20 -20 -84 -2 -44
1 -80 5 -80 4 0 4 -8 -1 -17 -15 -28 -6 -164 13 -210 9 -24 19 -43 21 -43 8 0
59 34 66 44 4 6 4 14 1 20 -3 5 -1 6 5 2 12 -7 119 100 115 115 -2 5 1 9 7 9
13 0 59 81 71 125 6 19 14 35 18 35 9 0 26 48 22 64 -1 4 3 14 9 20 5 7 7 16
3 19 -3 4 -1 13 5 20 13 15 10 15 -38 10z m-303 -335 c-3 -8 -6 -5 -6 6 -1 11
2 17 5 13 3 -3 4 -12 1 -19z"/>
<path d="M1800 555 c0 -6 4 -15 9 -20 11 -12 20 -285 9 -279 -7 5 -12 -10 -10
-27 1 -4 -7 -5 -17 -2 -10 3 -21 1 -24 -4 -3 -5 21 -10 54 -11 60 -3 75 8 47
36 -8 8 -12 56 -12 141 -1 71 -3 128 -6 126 -9 -5 -27 21 -25 36 2 9 -4 16
-11 16 -8 0 -14 -5 -14 -12z"/>
<path d="M1878 563 c7 -3 16 -2 19 1 4 3 -2 6 -13 5 -11 0 -14 -3 -6 -6z"/>
<path d="M2355 561 c-3 -5 7 -19 21 -30 20 -16 25 -26 20 -46 -5 -19 -2 -25 9
-25 10 0 13 -5 9 -12 -5 -9 -2 -9 9 1 18 14 24 77 7 66 -5 -3 -10 -1 -10 5 0
6 -13 16 -30 21 -16 6 -27 15 -24 20 3 5 3 9 0 9 -3 0 -7 -4 -11 -9z"/>
<path d="M2002 541 c7 -11 15 -18 18 -16 4 2 21 -25 38 -61 18 -35 28 -64 24
-64 -4 0 -7 -12 -6 -27 1 -16 -4 -39 -11 -53 -7 -14 -10 -31 -8 -37 3 -7 -1
-13 -7 -13 -6 0 -18 -7 -26 -15 -9 -9 -11 -15 -4 -15 19 0 60 32 60 46 0 8 4
14 9 14 33 0 39 162 7 185 -9 7 -16 19 -16 28 0 18 -29 37 -47 30 -6 -2 -14 1
-18 6 -3 6 -10 11 -16 11 -5 0 -4 -9 3 -19z"/>
<path d="M2215 550 c2 -3 5 -43 6 -88 2 -78 13 -108 22 -59 3 14 5 8 6 -15 1
-31 -2 -36 -16 -31 -14 6 -15 1 -9 -38 12 -71 12 -84 -1 -84 -7 0 -18 -6 -24
-12 -10 -10 -1 -13 45 -13 l57 0 -23 23 c-16 15 -17 17 -3 7 19 -15 20 -14 3
6 -14 15 -18 39 -18 93 0 46 4 70 10 66 13 -8 13 8 1 21 -11 11 -19 124 -9
118 4 -2 9 -1 12 4 3 5 -10 9 -29 9 -19 0 -32 -3 -30 -7z m32 -82 c-2 -13 -4
-5 -4 17 -1 22 1 32 4 23 2 -10 2 -28 0 -40z m0 -185 c-3 -10 -5 -4 -5 12 0
17 2 24 5 18 2 -7 2 -21 0 -30z"/>
<path d="M215 440 c-47 -24 -45 -24 -45 -4 0 13 -7 15 -31 10 -17 -3 -35 -6
-40 -6 -17 0 -9 -19 11 -25 18 -6 20 -15 20 -86 0 -68 -3 -81 -20 -91 -33 -21
-23 -28 40 -28 58 0 80 12 40 23 -18 5 -20 14 -20 86 0 69 3 82 19 91 29 15
67 12 82 -7 22 -25 19 -151 -3 -167 -29 -21 -21 -26 36 -26 56 0 82 13 46 23
-18 5 -20 14 -20 84 0 86 8 103 50 103 45 0 60 -27 60 -109 0 -54 -4 -73 -15
-77 -32 -13 -13 -24 40 -24 58 0 68 7 35 27 -16 11 -19 23 -18 87 3 117 -36
156 -114 117 -36 -17 -44 -18 -58 -7 -28 25 -55 27 -95 6z"/>
<path d="M654 449 c-16 -5 -41 -20 -55 -35 -20 -21 -24 -36 -24 -86 0 -55 3
-62 33 -89 52 -47 145 -35 186 23 21 30 21 117 0 147 -16 23 -72 52 -96 50 -7
0 -27 -5 -44 -10z m88 -50 c41 -55 18 -169 -34 -169 -70 0 -116 115 -72 178
22 32 79 27 106 -9z"/>
<path d="M983 440 c-29 -17 -33 -18 -33 -4 0 14 -7 15 -42 10 -53 -9 -57 -13
-30 -32 19 -13 22 -24 22 -94 0 -70 -2 -79 -20 -85 -39 -12 -19 -25 39 -25 60
0 89 13 51 23 -18 5 -20 14 -20 86 0 69 3 82 19 91 60 32 91 -2 91 -98 0 -62
-2 -71 -20 -77 -40 -13 -18 -25 45 -25 63 0 85 12 46 25 -16 5 -19 18 -22 91
-4 79 -6 88 -32 110 -34 29 -52 30 -94 4z"/>
<path d="M1257 450 c-37 -11 -57 -28 -68 -59 -13 -32 6 -88 32 -96 25 -8 24
-22 -1 -30 -24 -8 -25 -22 -5 -45 14 -15 12 -19 -15 -44 -24 -21 -29 -32 -24
-49 10 -34 23 -46 63 -57 66 -18 142 17 167 76 23 55 -9 94 -78 94 -78 0 -108
32 -43 44 53 10 87 44 88 88 1 29 5 38 21 40 12 2 22 10 24 18 2 11 -8 15 -40
15 -24 0 -54 3 -68 6 -14 4 -38 3 -53 -1z m53 -30 c36 -36 17 -120 -27 -120
-44 0 -71 90 -37 124 21 21 40 20 64 -4z m50 -240 c26 -26 25 -36 -6 -67 -21
-21 -32 -25 -65 -20 -22 3 -46 11 -54 17 -21 17 -19 67 3 79 30 18 100 13 122
-9z"/>
<path d="M1523 441 c-66 -31 -89 -94 -59 -165 19 -45 52 -66 102 -66 89 0 149
80 122 163 -24 73 -93 101 -165 68z m100 -43 c43 -57 19 -168 -35 -168 -69 0
-116 116 -72 178 23 33 79 27 107 -10z"/>
<path d="M2376 429 c-11 -11 -27 -17 -37 -14 -10 3 -20 2 -22 -2 -5 -8 18 -13
66 -16 9 -1 17 -9 17 -19 0 -9 5 -20 11 -24 7 -4 9 -24 6 -50 -2 -24 0 -44 5
-44 5 0 6 -5 2 -12 -4 -6 -3 -8 4 -5 5 4 9 18 7 32 -2 19 1 23 10 15 10 -8 14
-2 19 24 5 28 2 39 -16 58 -13 14 -31 28 -41 31 -13 5 -16 13 -12 27 8 24 5
24 -19 -1z"/>
</g>
</svg>
