<?xml version="1.0" encoding="UTF-8"?>
<svg xmlns="http://www.w3.org/2000/svg" xmlns:xlink="http://www.w3.org/1999/xlink" width="32px" height="13px" viewBox="0 0 32 13" version="1.1">
<defs>
<linearGradient id="linear0" gradientUnits="userSpaceOnUse" x1="135.100998" y1="59.272301" x2="225.457993" y2="59.272301" gradientTransform="matrix(0.122605,0,0,0.122642,0,0)">
<stop offset="0" style="stop-color:rgb(33.72549%,31.372549%,60.392157%);stop-opacity:1;"/>
<stop offset="1" style="stop-color:rgb(91.372549%,30.196078%,37.254902%);stop-opacity:1;"/>
</linearGradient>
<linearGradient id="linear1" gradientUnits="userSpaceOnUse" x1="-0.0664" y1="52.3974" x2="90.290703" y2="52.3974" gradientTransform="matrix(0.122605,0,0,0.122642,0,0)">
<stop offset="0" style="stop-color:rgb(18.039216%,66.666667%,88.235294%);stop-opacity:1;"/>
<stop offset="1" style="stop-color:rgb(29.019608%,38.823529%,66.27451%);stop-opacity:1;"/>
</linearGradient>
<linearGradient id="linear2" gradientUnits="userSpaceOnUse" x1="95.187202" y1="69.796402" x2="129.841995" y2="69.796402" gradientTransform="matrix(0.122605,0,0,0.122642,0,0)">
<stop offset="0" style="stop-color:rgb(29.019608%,38.823529%,66.27451%);stop-opacity:1;"/>
<stop offset="1" style="stop-color:rgb(33.72549%,31.372549%,60.392157%);stop-opacity:1;"/>
</linearGradient>
<linearGradient id="linear3" gradientUnits="userSpaceOnUse" x1="95.187202" y1="17.671801" x2="129.841995" y2="17.671801" gradientTransform="matrix(0.122605,0,0,0.122642,0,0)">
<stop offset="0" style="stop-color:rgb(29.019608%,38.823529%,66.27451%);stop-opacity:1;"/>
<stop offset="1" style="stop-color:rgb(33.72549%,31.372549%,60.392157%);stop-opacity:1;"/>
</linearGradient>
<linearGradient id="linear4" gradientUnits="userSpaceOnUse" x1="94.847099" y1="17.6719" x2="130.181" y2="17.6719" gradientTransform="matrix(0.122605,0,0,0.122642,0,0)">
<stop offset="0" style="stop-color:rgb(29.019608%,38.823529%,66.27451%);stop-opacity:1;"/>
<stop offset="1" style="stop-color:rgb(33.72549%,31.372549%,60.392157%);stop-opacity:1;"/>
</linearGradient>
</defs>
<g id="surface1">
<path style=" stroke:none;fill-rule:nonzero;fill:rgb(91.37255%,30.19608%,37.254903%);fill-opacity:1;" d="M 31.890625 10.828125 C 31.890625 12.007812 30.933594 12.949219 29.769531 12.949219 C 28.605469 12.949219 27.648438 11.996094 27.648438 10.828125 C 27.648438 9.664062 28.605469 8.707031 29.769531 8.707031 C 30.933594 8.707031 31.890625 9.652344 31.890625 10.828125 Z M 31.890625 10.828125 "/>
<path style=" stroke:none;fill-rule:nonzero;fill:url(#linear0);" d="M 25.515625 11.640625 C 26.8125 10.621094 27.648438 9.050781 27.648438 7.273438 C 27.648438 5.496094 26.8125 3.925781 25.515625 2.90625 C 24.570312 2.171875 23.394531 1.730469 22.105469 1.730469 C 19.039062 1.730469 16.5625 4.207031 16.5625 7.273438 C 16.5625 10.339844 19.039062 12.816406 22.105469 12.816406 C 23.394531 12.816406 24.570312 12.375 25.515625 11.640625 Z M 25.515625 11.640625 "/>
<path style=" stroke:none;fill-rule:nonzero;fill:url(#linear1);" d="M 11.058594 6.890625 L 11.058594 0.0351562 C 9.527344 0.0351562 8.191406 0.847656 7.441406 2.058594 C 6.855469 1.839844 6.203125 1.71875 5.542969 1.71875 C 2.476562 1.71875 0 4.195312 0 7.261719 C 0 10.328125 2.476562 12.804688 5.542969 12.804688 C 6.828125 12.804688 8.007812 12.363281 8.949219 11.625 C 10.25 10.609375 11.082031 9.039062 11.082031 7.261719 C 11.070312 7.136719 11.070312 7.015625 11.058594 6.890625 Z M 11.058594 6.890625 "/>
<path style=" stroke:none;fill-rule:nonzero;fill:url(#linear2);" d="M 13.78125 4.304688 C 12.617188 4.304688 11.671875 5.25 11.671875 6.414062 L 11.671875 12.804688 C 14.015625 12.804688 15.925781 10.902344 15.925781 8.546875 L 15.925781 6.449219 C 15.914062 5.273438 14.957031 4.304688 13.78125 4.304688 Z M 13.78125 4.304688 "/>
<path style=" stroke:none;fill-rule:nonzero;fill:url(#linear3);" d="M 13.792969 4.292969 C 14.964844 4.292969 15.914062 3.34375 15.914062 2.171875 C 15.914062 1 14.964844 0.0507812 13.792969 0.0507812 C 12.621094 0.0507812 11.671875 1 11.671875 2.171875 C 11.671875 3.34375 12.621094 4.292969 13.792969 4.292969 Z M 13.792969 4.292969 "/>
<path style=" stroke:none;fill-rule:nonzero;fill:url(#linear4);" d="M 13.792969 4.328125 C 12.605469 4.328125 11.621094 3.359375 11.621094 2.160156 C 11.621094 0.957031 12.605469 0 13.792969 0 C 14.980469 0 15.964844 0.96875 15.964844 2.171875 C 15.964844 3.371094 14.996094 4.328125 13.792969 4.328125 Z M 13.792969 0.0859375 C 12.640625 0.0859375 11.707031 1.019531 11.707031 2.171875 C 11.707031 3.324219 12.640625 4.253906 13.792969 4.253906 C 14.945312 4.253906 15.878906 3.324219 15.878906 2.171875 C 15.878906 1.019531 14.945312 0.0859375 13.792969 0.0859375 Z M 13.792969 0.0859375 "/>
</g>
</svg>
